<svg xmlns="http://www.w3.org/2000/svg" xmlns:xlink="http://www.w3.org/1999/xlink" width="112" height="40" viewBox="0 0 112 40"><defs><style>.a{fill:none;}.b{clip-path:url(#a);}.c{fill:url(#b);}</style><clipPath id="a"><rect class="a" width="112.001" height="40"/></clipPath><linearGradient id="b" x1="0.5" x2="0.5" y2="1" gradientUnits="objectBoundingBox"><stop offset="0" stop-color="#a3a0fb"/><stop offset="1" stop-color="#a3a0fb" stop-opacity="0.502"/></linearGradient></defs><g class="b"><path class="c" d="M98,119V101h6v18Zm-9,0V89h8v30Zm-9,0V99h8v20Zm-9,0V106h8v13Zm-9,0V94h8v25Zm-9,0V84h8v35Zm-9,0V94h8v25Zm-9,0V99h8v20Zm-9,0V79h8v40Zm-9,0V89h8v30Zm-7,0V101h6v18Zm-9,0V89H9v30Zm-9,0V99H0v20Z" transform="translate(8 -79)"/></g></svg>