<svg xmlns="http://www.w3.org/2000/svg" width="38" height="38" viewBox="0 0 38 38"><defs><style>.a{fill:#fff;stroke:#56d9fe;}.b{fill:#56d9fe;}.c{stroke:none;}.d{fill:none;}</style></defs><g transform="translate(-235 -997)"><g transform="translate(0 3)"><g class="a" transform="translate(235 994)"><circle class="c" cx="19" cy="19" r="19"/><circle class="d" cx="19" cy="19" r="18.5"/></g></g><g transform="translate(229.054 54.967)"><path class="b" d="M23.4,958.3a.21.21,0,0,0-.165.137l-1.282,4.671a.19.19,0,0,0,.174.229h1.218l-.843,2.784a.186.186,0,0,0,.082.211.194.194,0,0,0,.229-.037l4.213-4.671a.184.184,0,0,0,.027-.192.191.191,0,0,0-.165-.11H25.34l1.172-2.766a.194.194,0,0,0-.165-.256Zm.156.366h2.519L24.9,961.432a.194.194,0,0,0,.165.256h1.42L23.1,965.443l.678-2.235a.2.2,0,0,0-.174-.238H22.372Z" transform="translate(0 0)"/></g></g></svg>