<svg xmlns="http://www.w3.org/2000/svg" xmlns:xlink="http://www.w3.org/1999/xlink" width="38" height="38" viewBox="0 0 38 38"><defs><style>.a{fill:none;}.b{clip-path:url(#a);}.c{fill:#fff;stroke:#a3a1fb;}.d{fill:#a3a0fb;}.e{stroke:none;}</style><clipPath id="a"><rect class="a" width="38" height="38"/></clipPath></defs><g class="b"><g transform="translate(-235 -994)"><g class="c" transform="translate(235 994)"><circle class="e" cx="19" cy="19" r="19"/><circle class="a" cx="19" cy="19" r="18.5"/></g></g><g transform="translate(-9.946 -951.421)"><path class="d" d="M26.533,958.3a.663.663,0,0,0-.521.434l-4.05,14.755a.6.6,0,0,0,.55.723h3.848l-2.662,8.8a.588.588,0,0,0,.26.665.614.614,0,0,0,.723-.115L37.99,968.8a.583.583,0,0,0,.087-.608.6.6,0,0,0-.521-.347H32.666l3.7-8.737a.611.611,0,0,0-.521-.81Zm.492,1.157h7.956l-3.7,8.737a.611.611,0,0,0,.521.81h4.484l-10.7,11.862,2.141-7.059a.625.625,0,0,0-.55-.752H23.293Z" transform="translate(0 0)"/></g></g></svg>